inDegrees=no
num_controls=7
num_derivatives=13
num_iterations=125
num_multipliers=7
num_parameters=0
num_slacks=7
num_states=26
objective=5.185938
objective_accelerations=0.409739
objective_balance=0.107633
objective_effort=0.318154
objective_height=4.247796
objective_ligament=0.102616
solver_duration=1430.268521
status=Solve_Succeeded
success=true
DataType=double
version=3
OpenSimVersion=4.4-2022-07-23-0e9fedc
endheader
time	/jointset/ground_pelvis/pelvis_tilt/value	/jointset/ground_pelvis/pelvis_tx/value	/jointset/ground_pelvis/pelvis_ty/value	/jointset/hip_l/hip_flexion_l/value	/jointset/hip_l/hip_adduction_l/value	/jointset/hip_l/hip_rotation_l/value	/jointset/back/lumbar_extension/value	/jointset/patellofemoral_l/patellar_flexion_l/value	/jointset/knee_l/knee_flexion_l/value	/jointset/knee_l/knee_adduction_l/value	/jointset/knee_l/knee_rotation_l/value	/jointset/ankle_l/ankle_angle_l/value	/jointset/subtalar_l/subtalar_angle_l/value	/jointset/ground_pelvis/pelvis_tilt/speed	/jointset/ground_pelvis/pelvis_tx/speed	/jointset/ground_pelvis/pelvis_ty/speed	/jointset/hip_l/hip_flexion_l/speed	/jointset/hip_l/hip_adduction_l/speed	/jointset/hip_l/hip_rotation_l/speed	/jointset/back/lumbar_extension/speed	/jointset/patellofemoral_l/patellar_flexion_l/speed	/jointset/knee_l/knee_flexion_l/speed	/jointset/knee_l/knee_adduction_l/speed	/jointset/knee_l/knee_rotation_l/speed	/jointset/ankle_l/ankle_angle_l/speed	/jointset/subtalar_l/subtalar_angle_l/speed	/forceset/tau_hip_flexion_l	/forceset/tau_hip_adduction_l	/forceset/tau_hip_rotation_l	/forceset/tau_knee_flexion_l	/forceset/tau_ankle_angle_l	/forceset/tau_subtalar_angle_l	/forceset/tau_lumbar_extension	lambda_cid13_p0	lambda_cid13_p1	lambda_cid13_p2	lambda_cid13_p3	lambda_cid13_p4	lambda_cid13_p5	lambda_cid14_p0	/jointset/ground_pelvis/pelvis_tilt/accel	/jointset/ground_pelvis/pelvis_tx/accel	/jointset/ground_pelvis/pelvis_ty/accel	/jointset/hip_l/hip_flexion_l/accel	/jointset/hip_l/hip_adduction_l/accel	/jointset/hip_l/hip_rotation_l/accel	/jointset/back/lumbar_extension/accel	/jointset/patellofemoral_l/patellar_flexion_l/accel	/jointset/knee_l/knee_flexion_l/accel	/jointset/knee_l/knee_adduction_l/accel	/jointset/knee_l/knee_rotation_l/accel	/jointset/ankle_l/ankle_angle_l/accel	/jointset/subtalar_l/subtalar_angle_l/accel	gamma_cid13_p0	gamma_cid13_p1	gamma_cid13_p2	gamma_cid13_p3	gamma_cid13_p4	gamma_cid13_p5	gamma_cid14_p0
0.5	-0.3057078146719565	0.006452933276079968	0.8114076911671069	0.9627144117367373	-0.3044360546627534	-0.06082630377395015	-0.2961336270679031	0.6307666217227578	0.6307666217226897	-0.1707326275849696	0.1743626029982985	0.1444750862882775	-0.02054047336368314	-0.3721797367480658	-0.113712025567395	-0.3282474978580002	1.597997505297778	-0.03734051436480152	0.5783026918065722	-0.6363140932447954	1.633926069535558	1.633926069535541	-0.00902753447843167	0.0008484692689999888	0.5078993681460554	0.04597415893633414	-0.1674556833607931	0.03421291927467111	-0.02252325822086497	-0.2059793162572927	0.04643626327191082	0.04057024799782355	0.1701297848880683	-23.4470138073048	-17.66252716531562	7.151793788950766	5.477414469744163	-609.965700422359	-59.12418901697411	-31.54991854296589	0.2977185539512884	0.2692668826826364	-0.2843137077297509	-0.9023547414864395	0.4776692899264451	-0.3127901042754233	1.173055940865793	-0.9597170062055989	-0.9597170062056206	-0.05330431837925874	-0.030033522233106	-0.3344942094132191	0.445023302897966	-7.400901443566021e-08	-1.164430647675128e-06	4.611180964623123e-07	-9.591098453747443e-08	-1.2453980229416e-07	-6.155801633488411e-07	-1.523934628087493e-07
0.51	-0.3094140905016217	0.005329458828303695	0.8081116457898744	0.9786466530143357	-0.3047863640161421	-0.05506061100327893	-0.3024375024639078	0.6470555741489975	0.6470555741490555	-0.1708263762117189	0.1743709688248688	0.1495363925768182	-0.0200594101742453	-0.3690342421194986	-0.1109682909892587	-0.3308956563642076	1.588234623082404	-0.03273295243919538	0.5747444383857273	-0.6243793735658169	1.623641746562162	1.623641746562136	-0.009701257482663837	0.0008344070616943422	0.5042906062793665	0.05022573662159168	-0.172939995094258	0.03531114535827451	-0.02261750582922699	-0.2073255555726247	0.04341053545766307	0.04129982615403235	0.1747091879790389	-24.53070956341164	-17.71648789119279	7.076843921825621	5.778350247127629	-612.7408638864638	-58.85765929634115	-30.67234451891253	0.3291328690836468	0.2790944437461531	-0.2452034318306996	-1.045685594669364	0.450603040947888	-0.3912135836013563	1.215921840728956	-1.096160210496315	-1.096160210497754	-0.0714138141313488	0.01426053439490412	-0.3847779950373213	0.4134375546299201	-1.123063815128504e-07	-1.040300872446364e-06	6.311835029207379e-07	-5.89809449668741e-08	-1.477170408564631e-07	-6.027272510457038e-07	-1.6937054064087e-07
0.52	-0.3130876777946588	0.004233855265980601	0.8047910915256279	0.9944747793431766	-0.3050909370708405	-0.04933327489133855	-0.3086195822912555	0.6632350092919899	0.6632350092921687	-0.1709262635730895	0.1743794646502017	0.1545594690827494	-0.01953618869729627	-0.3656420294199013	-0.1081378484767592	-0.3331492752608163	1.577174515542764	-0.02819325463079569	0.5706313600603981	-0.6119549795141621	1.612022612885182	1.612022612885146	-0.01025528139430297	0.000874469029351169	0.5002534116230549	0.05440581643848188	-0.178424306827511	0.03640937144194974	-0.02271175343788334	-0.2086717948878637	0.04038480764344104	0.04202940431032299	0.1792885910701854	-25.62161984738644	-17.77180460882401	7.005102618134935	6.085745920941706	-615.6363730408455	-58.63960107801945	-29.77732921908274	0.3470621681578899	0.286608469554829	-0.2054057858100597	-1.161799806339713	0.4640964664851923	-0.42375508517206	1.270990815401339	-1.226679146922465	-1.226679146922576	-0.02936449986061078	-0.01920868724089687	-0.4201807673383275	0.4307237292244466	-1.849602842345446e-07	-8.567034435421198e-07	9.704555468123994e-07	6.217038387991622e-09	-1.967132821216277e-07	-6.044007546390779e-07	-2.074483588185177e-07
0.53	-0.3167260805030007	0.003166941094529825	0.8014500004916779	1.010185817237075	-0.305350729542512	-0.04364852487114106	-0.3146751122431906	0.6792914483063862	0.6792914483065331	-0.171032178778018	0.1743877454464056	0.1595399480452812	-0.01897187152525004	-0.3619981677313688	-0.1052357241799382	-0.3350007581787625	1.564827897290191	-0.02377924983828132	0.5662264855819664	-0.5990786566086478	1.599053837524408	1.59905383752432	-0.0109023278531501	0.0007949926652382345	0.4957730233145587	0.05844187513215467	-0.183862728693816	0.0374686201804701	-0.02280232025196283	-0.2099384391667405	0.03726876802800137	0.04261924995487354	0.183802387575157	-26.74410603230082	-17.75656909956979	6.917157827485443	6.459362622092518	-618.4903949618194	-58.30418002418018	-28.86842802664517	0.3790752731789774	0.2934117459929449	-0.1648380320897299	-1.30189703258763	0.4278501984399737	-0.4628867494666488	1.306806168481726	-1.363634111402563	-1.36363411141063	-0.07861186696139036	-0.0005457498187316191	-0.4723836021949756	0.3876716747840567	-2.260901032007269e-07	-7.123619253732128e-07	1.159569927460531e-06	5.019074080780372e-08	-2.26768456401069e-07	-5.818450730731273e-07	-2.253570415691905e-07
0.54	-0.3203268391736793	0.002129327633295144	0.7980924309310886	1.025767228108892	-0.3055668224236864	-0.03801063021975678	-0.3205997083379946	0.6952118680910438	0.6952118680911271	-0.1711438118772024	0.1743955857511382	0.1644735399768204	-0.01836766881919742	-0.3581132218836642	-0.1022777064335402	-0.3364449805886557	1.55124911112274	-0.01945333653358372	0.5612602862920308	-0.585768208088854	1.584818766933728	1.584818766933586	-0.01139886023453281	0.0007863707482343763	0.4908760054224753	0.0623829232396669	-0.1893011505598506	0.03852786891915016	-0.02289288706677816	-0.2112050834454403	0.03415272841262673	0.04320909559962716	0.1883161840803336	-27.87284789994212	-17.74354823421561	6.833347974630969	6.82981691736089	-621.4541683742526	-58.03379071661722	-27.94915162245668	0.3952789999928999	0.2977871594697707	-0.1239536841994959	-1.408233389315532	0.4464781689218697	-0.5360200474726297	1.357815938257558	-1.479938192903864	-1.479938192903888	0.0007383156323502241	-0.00503779781939034	-0.5035066840563029	0.4117216119923177	-2.323422124799591e-07	-6.114524786561688e-07	1.182552425371139e-06	7.068226006542852e-08	-2.35867556568646e-07	-5.32482633458562e-07	-2.209509361878906e-07
0.55	-0.3238875865382492	0.001121551921186412	0.7947224947726463	1.041206731345266	-0.305740144749144	-0.03242465133437308	-0.3263891458772186	0.7109835413712986	0.7109835413713325	-0.1712599618935884	0.1744032688254877	0.1693560873144584	-0.01772460046721384	-0.3539982339139536	-0.09926949310276934	-0.3374713217876698	1.536449348436632	-0.01523403757460093	0.5558658281724675	-0.5720576670467293	1.569307148469917	1.569307148469878	-0.01182677301754703	0.0007510334436135664	0.4855672235093415	0.06620461408323365	-0.1945307410419232	0.0393438798674452	-0.02298342916428037	-0.2127189931132981	0.03140697302077283	0.04367659875251845	0.1926628906844491	-28.88572752034782	-17.69603354846643	6.742156410407112	7.136383220911839	-624.4055577590567	-57.74327184544156	-27.0257142358297	0.4252870576616549	0.303546223418186	-0.0813831071908501	-1.546205584908497	0.4060902665007465	-0.5518045280901039	1.386918094312729	-1.618041059998692	-1.618041059983221	-0.06392281565428955	-0.002893561908979282	-0.5545083735166689	0.3634216160493998	-2.215209644577035e-07	-5.339206146902893e-07	1.129443280676448e-06	7.547674810789152e-08	-2.257146641015212e-07	-4.771583386529589e-07	-2.071583535809821e-07
